<svg xmlns="http://www.w3.org/2000/svg" viewBox="0 0 1600 900" role="img" aria-label="movie-collapse">
  <defs>
    <linearGradient id="sky-movie-collapse" x1="0" y1="0" x2="1" y2="1">
      <stop offset="0" stop-color="#101319"/>
      <stop offset="0.54" stop-color="#373e4b"/>
      <stop offset="1" stop-color="#100c10"/>
    </linearGradient>
    <radialGradient id="glow-movie-collapse" cx="50%" cy="38%" r="48%">
      <stop offset="0" stop-color="#f4b86a" stop-opacity="0.86"/>
      <stop offset="1" stop-color="#f4b86a" stop-opacity="0"/>
    </radialGradient>
    <filter id="soft-movie-collapse" x="-20%" y="-20%" width="140%" height="140%">
      <feGaussianBlur stdDeviation="18"/>
    </filter>
  </defs>
  <rect width="1600" height="900" fill="url(#sky-movie-collapse)"/>
  <rect width="1600" height="900" fill="url(#glow-movie-collapse)"/>
  
  <path d="M0 710 L210 650 L355 705 L520 620 L700 720 L900 590 L1080 698 L1260 620 L1600 705 L1600 900 L0 900 Z" fill="#07090f"/>
  <g fill="#111827" opacity="0.96">
    <path d="M180 370 L330 330 L380 760 L130 760 Z"/><path d="M510 310 L660 370 L640 760 L470 760 Z"/>
    <path d="M1020 330 L1190 310 L1160 760 L980 760 Z"/><path d="M1290 380 L1460 350 L1505 760 L1245 760 Z"/>
  </g>
  <g stroke="#ffcf86" stroke-width="5" opacity="0.55">
    <path d="M250 430 L325 560"/><path d="M555 420 L635 500"/><path d="M1090 390 L1160 510"/><path d="M1360 450 L1480 590"/>
  </g>
</svg>
