<svg xmlns="http://www.w3.org/2000/svg" viewBox="0 0 1600 900" role="img" aria-label="movie-title">
  <defs>
    <linearGradient id="sky-movie-title" x1="0" y1="0" x2="1" y2="1">
      <stop offset="0" stop-color="#071018"/>
      <stop offset="0.54" stop-color="#17324a"/>
      <stop offset="1" stop-color="#0c0507"/>
    </linearGradient>
    <radialGradient id="glow-movie-title" cx="50%" cy="38%" r="48%">
      <stop offset="0" stop-color="#b8d8ff" stop-opacity="0.86"/>
      <stop offset="1" stop-color="#b8d8ff" stop-opacity="0"/>
    </radialGradient>
    <filter id="soft-movie-title" x="-20%" y="-20%" width="140%" height="140%">
      <feGaussianBlur stdDeviation="18"/>
    </filter>
  </defs>
  <rect width="1600" height="900" fill="url(#sky-movie-title)"/>
  <rect width="1600" height="900" fill="url(#glow-movie-title)"/>
  
  <circle cx="1190" cy="170" r="86" fill="#d6e7ff" opacity="0.82"/>
  <path d="M0 710 C210 640 360 700 530 630 C730 548 940 628 1110 570 C1310 500 1460 545 1600 500 L1600 900 L0 900 Z" fill="#081018" opacity="0.88"/>
  <g fill="#071018">
    <rect x="90" y="390" width="82" height="340"/><rect x="205" y="340" width="120" height="390"/>
    <rect x="365" y="430" width="92" height="300"/><rect x="1120" y="360" width="130" height="370"/>
    <rect x="1290" y="430" width="72" height="300"/><rect x="1410" y="330" width="110" height="400"/>
  </g>
  <g fill="#ffd98f" opacity="0.75">
    <rect x="225" y="384" width="18" height="24"/><rect x="278" y="460" width="18" height="24"/>
    <rect x="1158" y="420" width="18" height="24"/><rect x="1460" y="400" width="18" height="24"/>
  </g>
</svg>
