<svg xmlns="http://www.w3.org/2000/svg" viewBox="0 0 1600 900" role="img" aria-label="portfolio-iteration">
  <defs>
    <linearGradient id="sky-portfolio-iteration" x1="0" y1="0" x2="1" y2="1">
      <stop offset="0" stop-color="#172554"/>
      <stop offset="0.54" stop-color="#396b68"/>
      <stop offset="1" stop-color="#2b193d"/>
    </linearGradient>
    <radialGradient id="glow-portfolio-iteration" cx="50%" cy="38%" r="48%">
      <stop offset="0" stop-color="#c4b5fd" stop-opacity="0.86"/>
      <stop offset="1" stop-color="#c4b5fd" stop-opacity="0"/>
    </radialGradient>
    <filter id="soft-portfolio-iteration" x="-20%" y="-20%" width="140%" height="140%">
      <feGaussianBlur stdDeviation="18"/>
    </filter>
  </defs>
  <rect width="1600" height="900" fill="url(#sky-portfolio-iteration)"/>
  <rect width="1600" height="900" fill="url(#glow-portfolio-iteration)"/>
  
  <g fill="#f8fafc" opacity="0.88">
    <rect x="235" y="245" width="300" height="360" rx="14"/><rect x="650" y="185" width="300" height="480" rx="14"/><rect x="1065" y="245" width="300" height="360" rx="14"/>
  </g>
  <g stroke="#38bdf8" stroke-width="24" stroke-linecap="round" stroke-linejoin="round" fill="none" opacity="0.82">
    <path d="M555 420 H620 L590 390 M620 420 L590 450"/>
    <path d="M970 420 H1035 L1005 390 M1035 420 L1005 450"/>
  </g>
  <g fill="#475569" opacity="0.48">
    <rect x="285" y="305" width="200" height="28" rx="8"/><rect x="700" y="255" width="200" height="28" rx="8"/><rect x="1115" y="305" width="200" height="28" rx="8"/>
  </g>
</svg>
