<svg xmlns="http://www.w3.org/2000/svg" viewBox="0 0 1600 900" role="img" aria-label="story-exit">
  <defs>
    <linearGradient id="sky-story-exit" x1="0" y1="0" x2="1" y2="1">
      <stop offset="0" stop-color="#173b2b"/>
      <stop offset="0.54" stop-color="#5b8f65"/>
      <stop offset="1" stop-color="#f2ba74"/>
    </linearGradient>
    <radialGradient id="glow-story-exit" cx="50%" cy="38%" r="48%">
      <stop offset="0" stop-color="#fef08a" stop-opacity="0.86"/>
      <stop offset="1" stop-color="#fef08a" stop-opacity="0"/>
    </radialGradient>
    <filter id="soft-story-exit" x="-20%" y="-20%" width="140%" height="140%">
      <feGaussianBlur stdDeviation="18"/>
    </filter>
  </defs>
  <rect width="1600" height="900" fill="url(#sky-story-exit)"/>
  <rect width="1600" height="900" fill="url(#glow-story-exit)"/>
  
  <path d="M0 680 C210 600 420 690 640 610 C880 520 1080 660 1600 540 L1600 900 L0 900 Z" fill="#165237"/>
  <path d="M640 900 C700 710 760 600 805 470 C860 600 940 720 1040 900 Z" fill="#d9b573"/>
  <path d="M650 620 C700 470 910 470 960 620 L930 620 C880 520 730 520 680 620 Z" fill="#f8fafc" opacity="0.78"/>
  <circle cx="810" cy="430" r="88" fill="#fde68a" opacity="0.72"/>
</svg>
