<svg xmlns="http://www.w3.org/2000/svg" viewBox="0 0 1600 900" role="img" aria-label="story-ending">
  <defs>
    <linearGradient id="sky-story-ending" x1="0" y1="0" x2="1" y2="1">
      <stop offset="0" stop-color="#f7c06a"/>
      <stop offset="0.54" stop-color="#7dd3fc"/>
      <stop offset="1" stop-color="#2f6b45"/>
    </linearGradient>
    <radialGradient id="glow-story-ending" cx="50%" cy="38%" r="48%">
      <stop offset="0" stop-color="#fff7ad" stop-opacity="0.86"/>
      <stop offset="1" stop-color="#fff7ad" stop-opacity="0"/>
    </radialGradient>
    <filter id="soft-story-ending" x="-20%" y="-20%" width="140%" height="140%">
      <feGaussianBlur stdDeviation="18"/>
    </filter>
  </defs>
  <rect width="1600" height="900" fill="url(#sky-story-ending)"/>
  <rect width="1600" height="900" fill="url(#glow-story-ending)"/>
  
  <circle cx="800" cy="430" r="130" fill="#fde68a" opacity="0.78"/>
  <path d="M0 660 C210 580 420 670 640 600 C880 520 1080 660 1600 540 L1600 900 L0 900 Z" fill="#3f8f5f"/>
  <path d="M0 760 C280 690 520 780 800 710 C1060 650 1320 730 1600 680 L1600 900 L0 900 Z" fill="#256d46"/>
  <path d="M700 735 C760 690 860 690 920 735 L920 790 C860 755 760 755 700 790 Z" fill="#f8fafc" opacity="0.9"/>
</svg>
