<svg xmlns="http://www.w3.org/2000/svg" viewBox="0 0 1600 900" role="img" aria-label="story-path">
  <defs>
    <linearGradient id="sky-story-path" x1="0" y1="0" x2="1" y2="1">
      <stop offset="0" stop-color="#0f2418"/>
      <stop offset="0.54" stop-color="#2f5d3f"/>
      <stop offset="1" stop-color="#10251a"/>
    </linearGradient>
    <radialGradient id="glow-story-path" cx="50%" cy="38%" r="48%">
      <stop offset="0" stop-color="#b7f7c5" stop-opacity="0.86"/>
      <stop offset="1" stop-color="#b7f7c5" stop-opacity="0"/>
    </radialGradient>
    <filter id="soft-story-path" x="-20%" y="-20%" width="140%" height="140%">
      <feGaussianBlur stdDeviation="18"/>
    </filter>
  </defs>
  <rect width="1600" height="900" fill="url(#sky-story-path)"/>
  <rect width="1600" height="900" fill="url(#glow-story-path)"/>
  
  <path d="M0 690 C230 580 390 690 600 595 C820 496 1040 640 1600 520 L1600 900 L0 900 Z" fill="#123b24"/>
  <path d="M690 900 C740 720 780 580 805 420 C835 585 890 720 980 900 Z" fill="#caa66a" opacity="0.88"/>
  <g fill="#0b2c1a"><path d="M160 730 L280 240 L420 730 Z"/><path d="M1120 730 L1240 250 L1390 730 Z"/><path d="M430 730 L520 340 L650 730 Z"/></g>
  <circle cx="810" cy="360" r="34" fill="#fef9c3" opacity="0.88"/>
</svg>
