<svg xmlns="http://www.w3.org/2000/svg" viewBox="0 0 1600 900" role="img" aria-label="story-lost">
  <defs>
    <linearGradient id="sky-story-lost" x1="0" y1="0" x2="1" y2="1">
      <stop offset="0" stop-color="#020617"/>
      <stop offset="0.54" stop-color="#13251d"/>
      <stop offset="1" stop-color="#100f1f"/>
    </linearGradient>
    <radialGradient id="glow-story-lost" cx="50%" cy="38%" r="48%">
      <stop offset="0" stop-color="#64748b" stop-opacity="0.86"/>
      <stop offset="1" stop-color="#64748b" stop-opacity="0"/>
    </radialGradient>
    <filter id="soft-story-lost" x="-20%" y="-20%" width="140%" height="140%">
      <feGaussianBlur stdDeviation="18"/>
    </filter>
  </defs>
  <rect width="1600" height="900" fill="url(#sky-story-lost)"/>
  <rect width="1600" height="900" fill="url(#glow-story-lost)"/>
  
  <g fill="#07150f">
    <path d="M0 760 L120 210 L260 760 Z"/><path d="M260 780 L390 160 L540 780 Z"/><path d="M530 790 L690 250 L850 790 Z"/>
    <path d="M820 790 L990 190 L1160 790 Z"/><path d="M1120 790 L1300 155 L1490 790 Z"/><path d="M1400 790 L1540 260 L1600 790 Z"/>
  </g>
  <path d="M720 900 C740 750 780 650 810 520 C850 650 890 750 930 900 Z" fill="#3f2f22"/>
  <circle cx="810" cy="500" r="18" fill="#fef08a" opacity="0.78"/>
</svg>
