<svg xmlns="http://www.w3.org/2000/svg" viewBox="0 0 1600 900" role="img" aria-label="story-cover">
  <defs>
    <linearGradient id="sky-story-cover" x1="0" y1="0" x2="1" y2="1">
      <stop offset="0" stop-color="#13351f"/>
      <stop offset="0.54" stop-color="#2f6b45"/>
      <stop offset="1" stop-color="#f1c27d"/>
    </linearGradient>
    <radialGradient id="glow-story-cover" cx="50%" cy="38%" r="48%">
      <stop offset="0" stop-color="#fef08a" stop-opacity="0.86"/>
      <stop offset="1" stop-color="#fef08a" stop-opacity="0"/>
    </radialGradient>
    <filter id="soft-story-cover" x="-20%" y="-20%" width="140%" height="140%">
      <feGaussianBlur stdDeviation="18"/>
    </filter>
  </defs>
  <rect width="1600" height="900" fill="url(#sky-story-cover)"/>
  <rect width="1600" height="900" fill="url(#glow-story-cover)"/>
  
  <circle cx="800" cy="260" r="120" fill="#fde68a" opacity="0.7"/>
  <path d="M0 640 C210 570 420 650 590 590 C810 510 1050 630 1600 530 L1600 900 L0 900 Z" fill="#164e2f"/>
  <g fill="#0f3f24">
    <path d="M160 700 L250 360 L350 700 Z"/><path d="M360 710 L470 300 L590 710 Z"/><path d="M1080 710 L1190 340 L1320 710 Z"/><path d="M1320 700 L1430 300 L1550 700 Z"/>
  </g>
  <path d="M680 735 C740 680 860 680 920 735 L920 800 C860 750 740 750 680 800 Z" fill="#f8fafc" opacity="0.9"/>
</svg>
