<svg xmlns="http://www.w3.org/2000/svg" viewBox="0 0 1600 900" role="img" aria-label="travel-coast">
  <defs>
    <linearGradient id="sky-travel-coast" x1="0" y1="0" x2="1" y2="1">
      <stop offset="0" stop-color="#7dd3fc"/>
      <stop offset="0.54" stop-color="#2563eb"/>
      <stop offset="1" stop-color="#064e3b"/>
    </linearGradient>
    <radialGradient id="glow-travel-coast" cx="50%" cy="38%" r="48%">
      <stop offset="0" stop-color="#fff7ad" stop-opacity="0.86"/>
      <stop offset="1" stop-color="#fff7ad" stop-opacity="0"/>
    </radialGradient>
    <filter id="soft-travel-coast" x="-20%" y="-20%" width="140%" height="140%">
      <feGaussianBlur stdDeviation="18"/>
    </filter>
  </defs>
  <rect width="1600" height="900" fill="url(#sky-travel-coast)"/>
  <rect width="1600" height="900" fill="url(#glow-travel-coast)"/>
  
  <circle cx="1220" cy="190" r="92" fill="#fde68a"/>
  <path d="M0 600 C180 560 320 630 520 590 C740 545 900 628 1120 575 C1320 530 1460 565 1600 520 L1600 900 L0 900 Z" fill="#0ea5e9" opacity="0.88"/>
  <path d="M0 710 C250 660 390 740 610 700 C830 650 1050 750 1600 675 L1600 900 L0 900 Z" fill="#f5deb3"/>
  <path d="M120 630 C310 610 410 660 600 632" stroke="#f8fafc" stroke-width="10" fill="none" opacity="0.72"/>
</svg>
