<svg xmlns="http://www.w3.org/2000/svg" viewBox="0 0 1600 900" role="img" aria-label="travel-city">
  <defs>
    <linearGradient id="sky-travel-city" x1="0" y1="0" x2="1" y2="1">
      <stop offset="0" stop-color="#151b2d"/>
      <stop offset="0.54" stop-color="#4b5563"/>
      <stop offset="1" stop-color="#422006"/>
    </linearGradient>
    <radialGradient id="glow-travel-city" cx="50%" cy="38%" r="48%">
      <stop offset="0" stop-color="#fb923c" stop-opacity="0.86"/>
      <stop offset="1" stop-color="#fb923c" stop-opacity="0"/>
    </radialGradient>
    <filter id="soft-travel-city" x="-20%" y="-20%" width="140%" height="140%">
      <feGaussianBlur stdDeviation="18"/>
    </filter>
  </defs>
  <rect width="1600" height="900" fill="url(#sky-travel-city)"/>
  <rect width="1600" height="900" fill="url(#glow-travel-city)"/>
  
  <path d="M0 700 H1600 V900 H0 Z" fill="#1f2937"/>
  <g fill="#0f172a">
    <rect x="80" y="350" width="120" height="350"/><rect x="260" y="270" width="150" height="430"/><rect x="500" y="410" width="110" height="290"/>
    <rect x="980" y="320" width="150" height="380"/><rect x="1190" y="260" width="130" height="440"/><rect x="1380" y="390" width="100" height="310"/>
  </g>
  <path d="M620 900 L810 520 L990 900 Z" fill="#111827"/>
  <g fill="#facc15" opacity="0.75">
    <circle cx="720" cy="690" r="12"/><circle cx="880" cy="690" r="12"/><rect x="300" y="350" width="18" height="28"/><rect x="1240" y="340" width="18" height="28"/>
  </g>
</svg>
